<svg width="158" height="158" viewBox="0 0 158 158" xmlns="http://www.w3.org/2000/svg">
<rect width="158" height="158" fill="#003466"/>
<g transform="translate(8.381,0)">
<path d="M36.548 122V44.24H43.94L66.02 95.888V44.24H75.044V122H68.132L45.764 68.912V122H36.548ZM94.8508 122.512C92.1201 122.512 89.9654 121.957 88.3868 120.848C86.8081 119.739 85.6774 118.16 84.9948 116.112C84.3548 114.064 84.0348 111.653 84.0348 108.88V98.128C84.0348 95.3547 84.3548 92.944 84.9948 90.896C85.6774 88.848 86.8081 87.2693 88.3868 86.16C89.9654 85.0507 92.1201 84.496 94.8508 84.496C97.5814 84.496 99.7148 85.0507 101.251 86.16C102.829 87.2693 103.939 88.848 104.579 90.896C105.261 92.944 105.603 95.3547 105.603 98.128V108.88C105.603 111.653 105.261 114.064 104.579 116.112C103.939 118.16 102.829 119.739 101.251 120.848C99.7148 121.957 97.5814 122.512 94.8508 122.512ZM94.8508 117.456C96.1734 117.456 97.0908 117.072 97.6028 116.304C98.1574 115.536 98.4774 114.533 98.5628 113.296C98.6908 112.016 98.7548 110.693 98.7548 109.328V97.744C98.7548 96.336 98.6908 95.0133 98.5628 93.776C98.4774 92.5387 98.1574 91.536 97.6028 90.768C97.0908 89.9573 96.1734 89.552 94.8508 89.552C93.5281 89.552 92.5894 89.9573 92.0348 90.768C91.4801 91.536 91.1388 92.5387 91.0108 93.776C90.9254 95.0133 90.8828 96.336 90.8828 97.744V109.328C90.8828 110.693 90.9254 112.016 91.0108 113.296C91.1388 114.533 91.4801 115.536 92.0348 116.304C92.5894 117.072 93.5281 117.456 94.8508 117.456ZM121.718 122.512C119.798 122.512 118.241 122.149 117.046 121.424C115.894 120.699 115.041 119.675 114.486 118.352C113.974 117.029 113.718 115.472 113.718 113.68V89.552H109.814V85.008H113.718V74.192H120.566V85.008H126.518V89.552H120.566V113.232C120.566 114.683 120.801 115.728 121.27 116.368C121.74 116.965 122.636 117.264 123.958 117.264C124.3 117.264 124.684 117.243 125.11 117.2C125.58 117.157 126.028 117.115 126.454 117.072V122.128C125.601 122.256 124.812 122.341 124.086 122.384C123.361 122.469 122.572 122.512 121.718 122.512Z" fill="#DAF5FF"/>
</g>
</svg>
